<?xml version="1.0" encoding="utf-8"?>
<svg version="1.1" id="Layer_1" xmlns="http://www.w3.org/2000/svg" xmlns:xlink="http://www.w3.org/1999/xlink" x="0px" y="0px"
     viewBox="0 0 557.87 149.36" style="enable-background:new 0 0 557.87 149.36;" xml:space="preserve">
<style type="text/css">
	.st0{fill:#FCFCFC;}
	.st1{fill:url(#SVGID_1_);}
	.st2{fill:url(#SVGID_00000119833285442796042710000014899612619519555222_);}
	.st3{fill:url(#SVGID_00000080895031693691227290000008968405670762797497_);}
	.st4{fill:url(#SVGID_00000128456442040692437080000009869649300444631181_);}
	.st5{fill:url(#SVGID_00000124123047522638747440000001727157532173111450_);}
	.st6{fill:url(#SVGID_00000121262662908095737330000003243184972375421883_);}
	.st7{fill:url(#SVGID_00000114774376459498758080000010390283946202089128_);}
	.st8{fill:url(#SVGID_00000068672026494141986590000012227241277852002216_);}
	.st9{fill:url(#SVGID_00000026125518808750588490000003710050420522831272_);}
	.st10{fill:url(#SVGID_00000143611355421620328160000013286968974688808600_);}
	.st11{fill:url(#SVGID_00000052089806477208042070000010317862010166349482_);}
	.st12{fill:url(#SVGID_00000115482600556143599170000014615491791801961376_);}
	.st13{fill:url(#SVGID_00000175317690065624877200000015943706440760775605_);}
	.st14{fill:url(#SVGID_00000047781519636569731000000013288520748356274848_);}
	.st15{fill:url(#SVGID_00000037660270077614446490000009141676129622642324_);}
	.st16{fill:url(#SVGID_00000105420429839003864880000007471893416009194424_);}
	.st17{fill:url(#SVGID_00000103964510894710329300000009554662489880975529_);}
	.st18{fill:url(#SVGID_00000120526099743828378450000006006615404932790443_);}
	.st19{fill:url(#SVGID_00000083787384909175285860000005603408547760505748_);}
	.st20{fill:url(#SVGID_00000091721831365260847100000005043327700805687175_);}
	.st21{fill:url(#SVGID_00000103255590954648355460000005962876383364611774_);}
	.st22{fill:url(#SVGID_00000120533031729340176990000008275547103055377326_);}
	.st23{fill:url(#SVGID_00000126285385872533770740000011775398393422878341_);}
	.st24{fill:url(#SVGID_00000116213906580741786680000002624914568789639091_);}
	.st25{fill:url(#SVGID_00000085222424110595427250000015121747624919424931_);}
	.st26{fill:url(#SVGID_00000120533659587904846880000004802751040003143341_);}
	.st27{fill:url(#SVGID_00000039847643047787138000000007080954421834928783_);}
	.st28{fill:url(#SVGID_00000026883071368141332370000014331173810781076915_);}
	.st29{fill:url(#SVGID_00000005268518024323737970000001026596603932469427_);}
	.st30{fill:url(#SVGID_00000074426654450409841940000005772277419373923749_);}
	.st31{fill:url(#SVGID_00000140008438191277930910000016347150366445696702_);}
	.st32{fill:url(#SVGID_00000059288315266664708610000009875272050686350756_);}
	.st33{fill:url(#SVGID_00000166666710862908915900000010491070539643688855_);}
	.st34{fill:url(#SVGID_00000174568780930788518910000013135439121046112910_);}
	.st35{fill:url(#SVGID_00000153672737288785131090000018304674256728457151_);}
	.st36{fill:url(#SVGID_00000065075652963731096550000014521041162425756337_);}
</style>
    <rect x="-9.62" y="-12.17" width="575.53" height="170.21"/>
    <g>
	<g>
		<path class="st0" d="M189.78,66.55c4.12,3.77,6.17,9.02,6.17,15.72c0,6.71-2,12.03-6.02,15.93c-4.01,3.91-10.14,5.87-18.37,5.87
			H156.8V60.9h15.26C179.76,60.9,185.66,62.79,189.78,66.55z M182.71,92.21c2.37-2.22,3.55-5.45,3.55-9.69
			c0-4.24-1.18-7.5-3.55-9.79c-2.37-2.28-6-3.43-10.9-3.43h-5.38v26.25h6.11C176.96,95.55,180.34,94.44,182.71,92.21z"/>
        <path class="st0" d="M218.44,79c-2.76,0-4.81,0.98-6.17,2.94c-1.36,1.96-2.04,4.54-2.04,7.75v14.39h-9.26V70.84h9.26v4.38
			c1.19-1.36,2.69-2.51,4.48-3.46c1.79-0.94,3.61-1.44,5.46-1.47l0.07,8.7H218.44z"/>
        <path class="st0" d="M256.67,87.46c0,4.81-1.67,8.87-5,12.16c-3.34,3.3-7.53,4.94-12.57,4.94s-9.23-1.64-12.56-4.94
			c-3.34-3.29-5-7.35-5-12.16c0-4.83,1.66-8.89,5-12.2c3.33-3.31,7.52-4.97,12.56-4.97s9.23,1.66,12.57,4.97
			C255,78.58,256.67,82.64,256.67,87.46z M230.85,87.46c0,2.71,0.78,4.93,2.32,6.64c1.55,1.71,3.52,2.56,5.93,2.56
			c2.41,0,4.38-0.85,5.93-2.56c1.55-1.71,2.32-3.93,2.32-6.64c0-2.73-0.77-4.94-2.32-6.68c-1.55-1.72-3.52-2.58-5.93-2.58
			c-2.41,0-4.38,0.86-5.93,2.58C231.63,82.52,230.85,84.74,230.85,87.46z"/>
        <path class="st0" d="M280.44,70.29c3.88,0,7.32,1.62,10.35,4.84c3.03,3.24,4.54,7.31,4.54,12.2c0,4.91-1.51,9-4.54,12.29
			c-3.03,3.3-6.57,4.94-10.62,4.94c-4.06,0-7.32-1.63-9.79-4.88v16.36h-9.26V70.84h9.26v3.71
			C273.22,71.71,276.57,70.29,280.44,70.29z M270.25,87.49c0,2.7,0.75,4.91,2.26,6.61c1.5,1.71,3.32,2.56,5.47,2.56
			c2.14,0,4.01-0.85,5.62-2.56c1.6-1.71,2.41-3.9,2.41-6.59c0-2.67-0.78-4.92-2.34-6.73c-1.57-1.8-3.44-2.71-5.62-2.71
			c-2.18,0-4.03,0.9-5.53,2.69C271,82.54,270.25,84.79,270.25,87.49z"/>
        <path class="st0" d="M324.54,93.73c0,3.27-1.2,5.9-3.61,7.88c-2.41,1.97-5.47,2.96-9.17,2.96c-2.47,0-5.05-0.44-7.72-1.33
			s-5.08-2.19-7.22-3.91l4.07-5.81c3.46,2.67,7.14,4.01,11.06,4.01c1.19,0,2.14-0.23,2.84-0.7c0.7-0.47,1.05-1.11,1.05-1.89
			c0-0.77-0.49-1.5-1.45-2.15c-0.97-0.67-2.37-1.28-4.2-1.85c-1.83-0.57-3.23-1.07-4.2-1.49c-0.97-0.4-2.07-1-3.3-1.79
			c-2.51-1.57-3.76-3.89-3.76-6.95s1.23-5.56,3.71-7.5c2.47-1.93,5.66-2.9,9.57-2.9c3.91,0,7.82,1.32,11.74,3.95l-3.46,6.17
			c-2.88-1.97-5.76-2.96-8.62-2.96c-2.86,0-4.29,0.78-4.29,2.35c0,0.86,0.45,1.54,1.36,2.04c0.91,0.5,2.41,1.07,4.51,1.72
			c2.1,0.67,3.59,1.17,4.48,1.51c0.88,0.35,1.94,0.9,3.18,1.64C323.39,88.12,324.54,90.45,324.54,93.73z"/>
        <path class="st0" d="M338.5,86.16v17.91h-9.26V58.25h9.26v16.3c2.8-2.83,5.94-4.25,9.42-4.25c3.48,0,6.41,1.23,8.8,3.71
			c2.39,2.47,3.58,5.77,3.58,9.88v20.2h-9.26V85.91c0-5.1-1.87-7.66-5.62-7.66c-1.85,0-3.47,0.68-4.85,2.01
			C339.19,81.6,338.5,83.56,338.5,86.16z"/>
        <path class="st0" d="M367.07,66.61c-1.05-1.04-1.58-2.34-1.58-3.86c0-1.51,0.53-2.81,1.58-3.86c1.04-1.04,2.34-1.57,3.86-1.57
			c1.53,0,2.81,0.52,3.86,1.57c1.05,1.06,1.57,2.35,1.57,3.86c0,1.53-0.52,2.82-1.57,3.86c-1.05,1.06-2.34,1.58-3.86,1.58
			C369.41,68.19,368.11,67.67,367.07,66.61z M375.56,104.07h-9.26V70.84h9.26V104.07z"/>
        <path class="st0" d="M401.25,70.29c3.88,0,7.32,1.62,10.35,4.84c3.03,3.24,4.54,7.31,4.54,12.2c0,4.91-1.51,9-4.54,12.29
			c-3.03,3.3-6.57,4.94-10.62,4.94c-4.06,0-7.32-1.63-9.79-4.88v16.36h-9.26V70.84h9.26v3.71
			C394.03,71.71,397.38,70.29,401.25,70.29z M391.06,87.49c0,2.7,0.75,4.91,2.26,6.61c1.5,1.71,3.32,2.56,5.47,2.56
			c2.14,0,4.01-0.85,5.62-2.56c1.6-1.71,2.41-3.9,2.41-6.59c0-2.67-0.78-4.92-2.34-6.73c-1.57-1.8-3.44-2.71-5.62-2.71
			c-2.18,0-4.03,0.9-5.53,2.69C391.81,82.54,391.06,84.79,391.06,87.49z"/>
        <linearGradient id="SVGID_1_" gradientUnits="userSpaceOnUse" x1="436.1741" y1="106.8675" x2="436.1741" y2="58.7963">
			<stop  offset="0" style="stop-color:#F15A29"/>
            <stop  offset="1" style="stop-color:#FF9900"/>
		</linearGradient>
        <path class="st1" d="M429.9,86.16v17.91h-9.26V58.25h9.26v16.3c2.8-2.83,5.94-4.25,9.42-4.25s6.41,1.23,8.8,3.71
			c2.39,2.47,3.58,5.77,3.58,9.88v20.2h-9.26V85.91c0-5.1-1.87-7.66-5.62-7.66c-1.85,0-3.47,0.68-4.85,2.01
			C430.6,81.6,429.9,83.56,429.9,86.16z"/>

        <linearGradient id="SVGID_00000015355230343197851170000008922429671190613379_" gradientUnits="userSpaceOnUse" x1="472.8889" y1="106.8675" x2="472.8889" y2="58.7963">
			<stop  offset="0" style="stop-color:#F15A29"/>
            <stop  offset="1" style="stop-color:#FF9900"/>
		</linearGradient>
        <path style="fill:url(#SVGID_00000015355230343197851170000008922429671190613379_);" d="M479.13,88.75V70.84h9.33v33.23h-9.33
			v-4.38c-2.3,3.25-5.28,4.88-8.92,4.88c-3.64,0-6.7-1.15-9.17-3.43c-2.47-2.28-3.71-5.68-3.71-10.16V70.84h9.33v18.1
			c0,5.11,1.87,7.66,5.62,7.66c1.85,0,3.46-0.67,4.82-2.01C478.45,93.26,479.13,91.31,479.13,88.75z"/>

        <linearGradient id="SVGID_00000045583406773094110630000007396839838802956717_" gradientUnits="userSpaceOnUse" x1="511.9228" y1="106.8675" x2="511.9228" y2="58.7963">
			<stop  offset="0" style="stop-color:#F15A29"/>
            <stop  offset="1" style="stop-color:#FF9900"/>
		</linearGradient>
        <path style="fill:url(#SVGID_00000045583406773094110630000007396839838802956717_);" d="M513.96,70.29
			c4.03,0,7.55,1.57,10.56,4.72c3.01,3.14,4.51,7.19,4.51,12.13c0,4.94-1.55,9.08-4.63,12.41c-3.09,3.34-6.6,5.01-10.53,5.01
			c-3.93,0-7.2-1.63-9.79-4.88v4.38h-9.26V58.25h9.26v16.3C506.64,71.71,509.92,70.29,513.96,70.29z M503.95,87.49
			c0,2.7,0.75,4.91,2.26,6.61c1.5,1.71,3.32,2.56,5.47,2.56c2.14,0,4.01-0.85,5.62-2.56c1.6-1.71,2.41-3.9,2.41-6.59
			c0-2.67-0.78-4.92-2.34-6.73c-1.57-1.8-3.44-2.71-5.62-2.71c-2.18,0-4.03,0.9-5.53,2.69C504.7,82.54,503.95,84.79,503.95,87.49z"
        />
	</g>
</g>
    <g>

		<linearGradient id="SVGID_00000059287109000771609470000014146299172853203377_" gradientUnits="userSpaceOnUse" x1="136.0448" y1="118.6659" x2="67.5279" y2="30.8657">
		<stop  offset="0" style="stop-color:#F15A29"/>
            <stop  offset="1" style="stop-color:#FF9900"/>
	</linearGradient>
        <path style="fill:url(#SVGID_00000059287109000771609470000014146299172853203377_);" d="M82.49,21.02L54.04,37.28
		c-0.17,0.1-0.27,0.27-0.27,0.46v23.84c0,0.41,0.44,0.67,0.79,0.47l7.64-4.26c0.17-0.09,0.27-0.27,0.27-0.47V42.79
		c0-0.19,0.1-0.37,0.27-0.46l19.71-11.26c0.17-0.09,0.37-0.09,0.54,0l19.45,11.39c0.16,0.1,0.26,0.27,0.26,0.46v50.31
		c0,0.19-0.1,0.37-0.27,0.46l-16.33,9.43c-0.36,0.21-0.36,0.72,0,0.93l7.63,4.41c0.17,0.1,0.37,0.1,0.53,0l16.93-9.74
		c0.17-0.1,0.27-0.27,0.27-0.46V37.93c0-0.19-0.1-0.37-0.27-0.46L83.03,21.03C82.86,20.93,82.66,20.93,82.49,21.02z"/>
</g>
    <linearGradient id="SVGID_00000034050573835916530350000001590849243010097025_" gradientUnits="userSpaceOnUse" x1="124.9156" y1="127.3811" x2="56.4062" y2="39.5905">
	<stop  offset="0" style="stop-color:#F15A29"/>
        <stop  offset="1" style="stop-color:#FF9900"/>
</linearGradient>
    <path style="fill:url(#SVGID_00000034050573835916530350000001590849243010097025_);" d="M114.1,67.62v8.81
	c0,0.19,0.1,0.37,0.27,0.46l12.58,7.27c0.17,0.1,0.27,0.27,0.27,0.46v22.66c0,0.19-0.1,0.37-0.27,0.46l-19.62,11.33
	c-0.17,0.1-0.37,0.1-0.53,0L62.86,93.69c-0.17-0.1-0.27-0.27-0.27-0.46V74.59c0-0.41-0.44-0.67-0.79-0.47l-7.63,4.25
	c-0.17,0.09-0.27,0.27-0.27,0.47v19.41c0,0.19,0.1,0.37,0.27,0.46l52.63,30.39c0.17,0.1,0.37,0.1,0.53,0l28.32-16.35
	c0.17-0.1,0.27-0.27,0.27-0.46v-32.7c0-0.19-0.1-0.37-0.27-0.46L114.9,67.15C114.54,66.95,114.1,67.2,114.1,67.62z"/>
    <linearGradient id="SVGID_00000127766287485788075070000007744778230840756620_" gradientUnits="userSpaceOnUse" x1="107.5499" y1="140.708" x2="39.1544" y2="53.0634">
	<stop  offset="0" style="stop-color:#F15A29"/>
        <stop  offset="1" style="stop-color:#FF9900"/>
</linearGradient>
    <path style="fill:url(#SVGID_00000127766287485788075070000007744778230840756620_);" d="M57.98,119.06l-19.62-11.33
	c-0.17-0.1-0.27-0.27-0.27-0.46V84.62c0-0.19,0.1-0.37,0.27-0.47l29.31-16.38l14.78-8.47c0.17-0.09,0.37-0.09,0.53,0l16.36,9.51
	c0.36,0.21,0.8-0.05,0.8-0.46V59.5c0-0.19-0.1-0.37-0.27-0.46l-16.87-9.78c-0.16-0.1-0.37-0.1-0.53,0L29.67,79.13
	c-0.17,0.09-0.27,0.27-0.27,0.47v32.69c0,0.19,0.1,0.37,0.27,0.46l28.32,16.35c0.17,0.1,0.37,0.1,0.53,0l20.62-11.91
	c0.36-0.21,0.36-0.72,0-0.93l-7.63-4.4c-0.17-0.1-0.37-0.1-0.53,0l-12.46,7.2C58.35,119.16,58.14,119.16,57.98,119.06z"/>
    <linearGradient id="SVGID_00000091009407815165199750000007696339224063060413_" gradientUnits="userSpaceOnUse" x1="114.3848" y1="135.6532" x2="45.8048" y2="47.7723">
	<stop  offset="0" style="stop-color:#F15A29"/>
        <stop  offset="1" style="stop-color:#FF9900"/>
</linearGradient>
    <polygon style="fill:url(#SVGID_00000091009407815165199750000007696339224063060413_);" points="82.08,80.86 67.97,73.43
	67.97,89.57 82.08,97 "/>
</svg>
