<?xml version="1.0" encoding="utf-8"?>
<svg version="1.1" id="Layer_1" xmlns="http://www.w3.org/2000/svg" xmlns:xlink="http://www.w3.org/1999/xlink" x="0px" y="0px"
     viewBox="0 0 159.74 149.36" style="enable-background:new 0 0 159.74 149.36;" xml:space="preserve">
<style type="text/css">
	.st0{fill:#FCFCFC;}
	.st1{fill:url(#SVGID_1_);}
	.st2{fill:url(#SVGID_00000079447316275880900100000003884452280038793405_);}
	.st3{fill:url(#SVGID_00000030455059198716706850000011869261074647414198_);}
	.st4{fill:url(#SVGID_00000000219885584320369510000005923228253762281377_);}
	.st5{fill:url(#SVGID_00000116931854262303528550000015977003167903223721_);}
	.st6{fill:url(#SVGID_00000046298192196371790750000008067490708838391471_);}
	.st7{fill:url(#SVGID_00000174559797372895637850000006377764776922158779_);}
	.st8{fill:url(#SVGID_00000107576221090088196160000006457685330279359114_);}
	.st9{fill:url(#SVGID_00000003085730700323042000000004073213540315900849_);}
	.st10{fill:url(#SVGID_00000151533509693648633000000006429141036878781341_);}
	.st11{fill:url(#SVGID_00000056421235050472034110000015522453937983377042_);}
	.st12{fill:url(#SVGID_00000078731438167884945680000014833100295076149687_);}
	.st13{fill:url(#SVGID_00000183958985995926290990000004565832963062894503_);}
	.st14{fill:url(#SVGID_00000127726242623470947100000007648319927334557834_);}
	.st15{fill:url(#SVGID_00000100369068144626833090000000465828483441056913_);}
	.st16{fill:url(#SVGID_00000145016559104789622070000018113285879806689427_);}
	.st17{fill:url(#SVGID_00000154425382942015226070000014125397378616970917_);}
	.st18{fill:url(#SVGID_00000051372092061294631940000012825965042335659698_);}
	.st19{fill:url(#SVGID_00000034795267677505704780000009806404770054771859_);}
	.st20{fill:url(#SVGID_00000114785546197628906020000006237277663838871207_);}
	.st21{fill:url(#SVGID_00000152946670981006364270000002053969941293114004_);}
	.st22{fill:url(#SVGID_00000177462592297510576990000010856807971884824233_);}
	.st23{fill:url(#SVGID_00000083791207469382272220000003735934952601202620_);}
	.st24{fill:url(#SVGID_00000106132793953924834600000016843278292237568420_);}
	.st25{fill:url(#SVGID_00000026865432150635013310000000681755843792115883_);}
	.st26{fill:url(#SVGID_00000147933255922666659610000015422736074665199764_);}
	.st27{fill:url(#SVGID_00000114765733500395282790000008510381078729118906_);}
	.st28{fill:url(#SVGID_00000093153414351159867050000007227693492658310295_);}
	.st29{fill:url(#SVGID_00000168822943952723418000000011865006811174414499_);}
	.st30{fill:url(#SVGID_00000149342873812635172390000001365059366370464662_);}
	.st31{fill:url(#SVGID_00000005254031592898256390000002071008864777787796_);}
	.st32{fill:url(#SVGID_00000028309426631178517140000007651323740165241508_);}
	.st33{fill:url(#SVGID_00000036238558288639023970000016851148240181703050_);}
	.st34{fill:url(#SVGID_00000156578446317539610050000011376099276916619677_);}
	.st35{fill:url(#SVGID_00000094587236267552226620000000425644262786091149_);}
	.st36{fill:url(#SVGID_00000110437531065874089850000017820735687482161561_);}
</style>
    <rect x="-5.21" y="-5.32" width="168.66" height="158.49"/>
    <g>
	<linearGradient id="SVGID_1_" gradientUnits="userSpaceOnUse" x1="136.0448" y1="118.6659" x2="67.5279" y2="30.8657">
		<stop  offset="0" style="stop-color:#F15A29"/>
        <stop  offset="1" style="stop-color:#FF9900"/>
	</linearGradient>
        <path class="st1" d="M82.49,21.02L54.04,37.28c-0.17,0.1-0.27,0.27-0.27,0.46v23.84c0,0.41,0.44,0.67,0.79,0.47l7.64-4.26
		c0.17-0.09,0.27-0.27,0.27-0.47V42.79c0-0.19,0.1-0.37,0.27-0.46l19.71-11.26c0.17-0.09,0.37-0.09,0.54,0l19.45,11.39
		c0.16,0.1,0.26,0.27,0.26,0.46v50.31c0,0.19-0.1,0.37-0.27,0.46l-16.33,9.43c-0.36,0.21-0.36,0.72,0,0.93l7.63,4.41
		c0.17,0.1,0.37,0.1,0.53,0l16.93-9.74c0.17-0.1,0.27-0.27,0.27-0.46V37.93c0-0.19-0.1-0.37-0.27-0.46L83.03,21.03
		C82.86,20.93,82.66,20.93,82.49,21.02z"/>
</g>
    <linearGradient id="SVGID_00000140720662041977196430000001727452956371616694_" gradientUnits="userSpaceOnUse" x1="124.9156" y1="127.3811" x2="56.4062" y2="39.5905">
	<stop  offset="0" style="stop-color:#F15A29"/>
        <stop  offset="1" style="stop-color:#FF9900"/>
</linearGradient>
    <path style="fill:url(#SVGID_00000140720662041977196430000001727452956371616694_);" d="M114.1,67.62v8.81
	c0,0.19,0.1,0.37,0.27,0.46l12.58,7.27c0.17,0.1,0.27,0.27,0.27,0.46v22.66c0,0.19-0.1,0.37-0.27,0.46l-19.62,11.33
	c-0.17,0.1-0.37,0.1-0.53,0L62.86,93.69c-0.17-0.1-0.27-0.27-0.27-0.46V74.59c0-0.41-0.44-0.67-0.79-0.47l-7.63,4.25
	c-0.17,0.09-0.27,0.27-0.27,0.47v19.41c0,0.19,0.1,0.37,0.27,0.46l52.63,30.39c0.17,0.1,0.37,0.1,0.53,0l28.32-16.35
	c0.17-0.1,0.27-0.27,0.27-0.46v-32.7c0-0.19-0.1-0.37-0.27-0.46L114.9,67.15C114.54,66.95,114.1,67.2,114.1,67.62z"/>
    <linearGradient id="SVGID_00000039094959985351598360000013216347144429335444_" gradientUnits="userSpaceOnUse" x1="107.5499" y1="140.708" x2="39.1544" y2="53.0634">
	<stop  offset="0" style="stop-color:#F15A29"/>
        <stop  offset="1" style="stop-color:#FF9900"/>
</linearGradient>
    <path style="fill:url(#SVGID_00000039094959985351598360000013216347144429335444_);" d="M57.98,119.06l-19.62-11.33
	c-0.17-0.1-0.27-0.27-0.27-0.46V84.62c0-0.19,0.1-0.37,0.27-0.47l29.31-16.38l14.78-8.47c0.17-0.09,0.37-0.09,0.53,0l16.36,9.51
	c0.36,0.21,0.8-0.05,0.8-0.46V59.5c0-0.19-0.1-0.37-0.27-0.46l-16.87-9.78c-0.16-0.1-0.37-0.1-0.53,0L29.67,79.13
	c-0.17,0.09-0.27,0.27-0.27,0.47v32.69c0,0.19,0.1,0.37,0.27,0.46l28.32,16.35c0.17,0.1,0.37,0.1,0.53,0l20.62-11.91
	c0.36-0.21,0.36-0.72,0-0.93l-7.63-4.4c-0.17-0.1-0.37-0.1-0.53,0l-12.46,7.2C58.35,119.16,58.14,119.16,57.98,119.06z"/>
    <linearGradient id="SVGID_00000013174292343182900360000004890012589579654273_" gradientUnits="userSpaceOnUse" x1="114.3848" y1="135.6532" x2="45.8048" y2="47.7723">
	<stop  offset="0" style="stop-color:#F15A29"/>
        <stop  offset="1" style="stop-color:#FF9900"/>
</linearGradient>
    <polygon style="fill:url(#SVGID_00000013174292343182900360000004890012589579654273_);" points="82.08,80.86 67.97,73.43
	67.97,89.57 82.08,97 "/>
</svg>