<?xml version="1.0" encoding="utf-8"?>
<svg version="1.1" id="Layer_1" xmlns="http://www.w3.org/2000/svg" xmlns:xlink="http://www.w3.org/1999/xlink" x="0px" y="0px"
	 viewBox="0 0 457.83 283.94" style="enable-background:new 0 0 457.83 283.94;" xml:space="preserve">
<style type="text/css">
	.st0{fill:#FCFCFC;}
	.st1{fill:url(#SVGID_1_);}
	.st2{fill:url(#SVGID_00000062889303831384750720000012732591117649191041_);}
	.st3{fill:url(#SVGID_00000176724371162156649830000009090537911875126411_);}
	.st4{fill:url(#SVGID_00000129179407789923761100000017105414652782740368_);}
	.st5{fill:url(#SVGID_00000034788504915322712070000002917606840261608331_);}
	.st6{fill:url(#SVGID_00000032630586548858509620000014904232985141390776_);}
	.st7{fill:url(#SVGID_00000034078363809416694160000010556788989595578532_);}
	.st8{fill:url(#SVGID_00000132075204426452008460000017835798320745076910_);}
	.st9{fill:url(#SVGID_00000101819876964342278690000003334112760852076719_);}
	.st10{fill:url(#SVGID_00000124867776551255557710000007932072039364341688_);}
	.st11{fill:url(#SVGID_00000124157493286340050290000009850457441701168820_);}
	.st12{fill:url(#SVGID_00000131356215600541433820000001313621579183835279_);}
	.st13{fill:url(#SVGID_00000070834073716519275540000009644203036002868404_);}
	.st14{fill:url(#SVGID_00000002350130115543110710000013801914473135676310_);}
	.st15{fill:url(#SVGID_00000026852837838042740990000012340572613880085694_);}
	.st16{fill:url(#SVGID_00000166656084856605805110000010576447322268346010_);}
	.st17{fill:url(#SVGID_00000099645839809688506850000008159767314400131005_);}
	.st18{fill:url(#SVGID_00000023245849493437897630000013076531007747055753_);}
	.st19{fill:url(#SVGID_00000023247926895060851680000009424974032971192763_);}
	.st20{fill:url(#SVGID_00000132047770201210616330000010368338764737478037_);}
	.st21{fill:url(#SVGID_00000148647451167615878340000005069340921675307660_);}
	.st22{fill:url(#SVGID_00000084508293216108704620000001784473088420610951_);}
	.st23{fill:url(#SVGID_00000046309097159280950690000005359152727226486719_);}
	.st24{fill:url(#SVGID_00000006674700878204193800000014919717557013358011_);}
	.st25{fill:url(#SVGID_00000030457381467908588540000011201752924905225620_);}
	.st26{fill:url(#SVGID_00000148629856887706684360000005202294100812272291_);}
	.st27{fill:url(#SVGID_00000161596586790028837600000011520141575305270428_);}
	.st28{fill:url(#SVGID_00000018220757648496808500000001872504971241685385_);}
	.st29{fill:url(#SVGID_00000150811206900912748920000018287975190008667041_);}
	.st30{fill:url(#SVGID_00000123423495385497576600000005694776160251957907_);}
	.st31{fill:url(#SVGID_00000013915254633850903600000003111047678170220425_);}
	.st32{fill:url(#SVGID_00000109012702840165957120000003309788503580487824_);}
	.st33{fill:url(#SVGID_00000092437886876138020210000018377880124147644063_);}
	.st34{fill:url(#SVGID_00000146483591619865201860000015771073693197825976_);}
	.st35{fill:url(#SVGID_00000051364438846397468270000011183554093328844420_);}
	.st36{fill:url(#SVGID_00000111160093832403469430000002340036235665766540_);}
</style>
<g>
	<g>
		<g>
			<path d="M75.78,187.38c4.12,3.77,6.17,9.02,6.17,15.72c0,6.71-2,12.03-6.02,15.93c-4.01,3.91-10.14,5.87-18.37,5.87H42.8v-43.17
				h15.26C65.76,181.73,71.66,183.62,75.78,187.38z M68.71,213.04c2.37-2.22,3.55-5.45,3.55-9.69s-1.18-7.5-3.55-9.79
				s-6-3.43-10.9-3.43h-5.38v26.25h6.11C62.96,216.38,66.34,215.27,68.71,213.04z"/>
			<path d="M104.44,199.83c-2.76,0-4.81,0.98-6.17,2.94c-1.36,1.96-2.04,4.54-2.04,7.75v14.39h-9.26v-33.23h9.26v4.38
				c1.19-1.36,2.69-2.51,4.48-3.46c1.79-0.94,3.61-1.44,5.46-1.47l0.07,8.7H104.44z"/>
			<path d="M142.67,208.29c0,4.81-1.67,8.87-5,12.16c-3.34,3.3-7.53,4.94-12.57,4.94c-5.04,0-9.23-1.64-12.56-4.94
				c-3.34-3.29-5-7.35-5-12.16c0-4.83,1.66-8.89,5-12.2c3.33-3.31,7.52-4.97,12.56-4.97c5.04,0,9.23,1.66,12.57,4.97
				C141,199.41,142.67,203.47,142.67,208.29z M116.85,208.29c0,2.71,0.78,4.93,2.32,6.64c1.55,1.71,3.52,2.56,5.93,2.56
				c2.41,0,4.38-0.85,5.93-2.56c1.55-1.71,2.32-3.93,2.32-6.64c0-2.73-0.77-4.94-2.32-6.68c-1.55-1.72-3.52-2.58-5.93-2.58
				c-2.41,0-4.38,0.86-5.93,2.58C117.63,203.35,116.85,205.57,116.85,208.29z"/>
			<path d="M166.44,191.12c3.88,0,7.32,1.62,10.35,4.84c3.03,3.24,4.54,7.31,4.54,12.2c0,4.91-1.51,9-4.54,12.29
				c-3.03,3.3-6.57,4.94-10.62,4.94c-4.06,0-7.32-1.63-9.79-4.88v16.36h-9.26v-45.21h9.26v3.71
				C159.22,192.54,162.57,191.12,166.44,191.12z M156.25,208.32c0,2.7,0.75,4.91,2.26,6.61c1.5,1.71,3.32,2.56,5.47,2.56
				c2.14,0,4.01-0.85,5.62-2.56c1.6-1.71,2.41-3.9,2.41-6.59c0-2.67-0.78-4.92-2.34-6.73c-1.57-1.8-3.44-2.71-5.62-2.71
				c-2.18,0-4.03,0.9-5.53,2.69C157,203.37,156.25,205.62,156.25,208.32z"/>
			<path d="M210.54,214.56c0,3.27-1.2,5.9-3.61,7.88c-2.41,1.97-5.47,2.96-9.17,2.96c-2.47,0-5.05-0.44-7.72-1.33
				c-2.67-0.89-5.08-2.19-7.22-3.91l4.07-5.81c3.46,2.67,7.14,4.01,11.06,4.01c1.19,0,2.14-0.23,2.84-0.7
				c0.7-0.47,1.05-1.11,1.05-1.89c0-0.77-0.49-1.5-1.45-2.15c-0.97-0.67-2.37-1.28-4.2-1.85c-1.83-0.57-3.23-1.07-4.2-1.49
				c-0.97-0.4-2.07-1-3.3-1.79c-2.51-1.57-3.76-3.89-3.76-6.95s1.23-5.56,3.71-7.5c2.47-1.93,5.66-2.9,9.57-2.9
				c3.91,0,7.82,1.32,11.74,3.95l-3.46,6.17c-2.88-1.97-5.76-2.96-8.62-2.96c-2.86,0-4.29,0.78-4.29,2.35
				c0,0.86,0.45,1.54,1.36,2.04c0.91,0.5,2.41,1.07,4.51,1.72c2.1,0.67,3.59,1.17,4.48,1.51c0.88,0.35,1.94,0.9,3.18,1.64
				C209.39,208.95,210.54,211.28,210.54,214.56z"/>
			<path d="M224.5,206.99v17.91h-9.26v-45.82h9.26v16.3c2.8-2.83,5.94-4.25,9.42-4.25s6.41,1.23,8.8,3.71
				c2.39,2.47,3.58,5.77,3.58,9.88v20.2h-9.26v-18.16c0-5.1-1.87-7.66-5.62-7.66c-1.85,0-3.47,0.68-4.85,2.01
				C225.19,202.43,224.5,204.39,224.5,206.99z"/>
			<path d="M253.07,187.44c-1.05-1.04-1.58-2.34-1.58-3.86c0-1.51,0.53-2.81,1.58-3.86c1.04-1.04,2.34-1.57,3.86-1.57
				c1.53,0,2.81,0.52,3.86,1.57c1.05,1.06,1.57,2.35,1.57,3.86c0,1.53-0.52,2.82-1.57,3.86c-1.05,1.06-2.34,1.58-3.86,1.58
				C255.4,189.02,254.11,188.5,253.07,187.44z M261.56,224.9h-9.26v-33.23h9.26V224.9z"/>
			<path d="M287.25,191.12c3.88,0,7.32,1.62,10.35,4.84c3.03,3.24,4.54,7.31,4.54,12.2c0,4.91-1.51,9-4.54,12.29
				c-3.03,3.3-6.57,4.94-10.62,4.94c-4.06,0-7.32-1.63-9.79-4.88v16.36h-9.26v-45.21h9.26v3.71
				C280.02,192.54,283.38,191.12,287.25,191.12z M277.06,208.32c0,2.7,0.75,4.91,2.26,6.61c1.5,1.71,3.32,2.56,5.47,2.56
				c2.14,0,4.01-0.85,5.62-2.56c1.6-1.71,2.41-3.9,2.41-6.59c0-2.67-0.78-4.92-2.34-6.73c-1.57-1.8-3.44-2.71-5.62-2.71
				c-2.18,0-4.03,0.9-5.53,2.69C277.81,203.37,277.06,205.62,277.06,208.32z"/>
			<linearGradient id="SVGID_1_" gradientUnits="userSpaceOnUse" x1="322.1732" y1="227.6976" x2="322.1732" y2="179.6264">
				<stop  offset="0" style="stop-color:#F15A29"/>
				<stop  offset="1" style="stop-color:#FF9900"/>
			</linearGradient>
			<path class="st1" d="M315.9,206.99v17.91h-9.26v-45.82h9.26v16.3c2.8-2.83,5.94-4.25,9.42-4.25s6.41,1.23,8.8,3.71
				c2.39,2.47,3.58,5.77,3.58,9.88v20.2h-9.26v-18.16c0-5.1-1.87-7.66-5.62-7.66c-1.85,0-3.47,0.68-4.85,2.01
				C316.6,202.43,315.9,204.39,315.9,206.99z"/>
			
				<linearGradient id="SVGID_00000145746617525779602370000013554111581847086478_" gradientUnits="userSpaceOnUse" x1="358.888" y1="227.6976" x2="358.888" y2="179.6264">
				<stop  offset="0" style="stop-color:#F15A29"/>
				<stop  offset="1" style="stop-color:#FF9900"/>
			</linearGradient>
			<path style="fill:url(#SVGID_00000145746617525779602370000013554111581847086478_);" d="M365.12,209.58v-17.91h9.33v33.23h-9.33
				v-4.38c-2.3,3.25-5.28,4.88-8.92,4.88c-3.64,0-6.7-1.15-9.17-3.43c-2.47-2.28-3.71-5.68-3.71-10.16v-20.13h9.33v18.1
				c0,5.11,1.87,7.66,5.62,7.66c1.85,0,3.46-0.67,4.82-2.01C364.45,214.09,365.12,212.14,365.12,209.58z"/>
			
				<linearGradient id="SVGID_00000148623312617570572560000003141066342286199734_" gradientUnits="userSpaceOnUse" x1="397.9219" y1="227.6976" x2="397.9219" y2="179.6264">
				<stop  offset="0" style="stop-color:#F15A29"/>
				<stop  offset="1" style="stop-color:#FF9900"/>
			</linearGradient>
			<path style="fill:url(#SVGID_00000148623312617570572560000003141066342286199734_);" d="M399.96,191.12
				c4.03,0,7.55,1.57,10.56,4.72c3.01,3.14,4.51,7.19,4.51,12.13c0,4.94-1.55,9.08-4.63,12.41c-3.09,3.34-6.6,5.01-10.53,5.01
				c-3.93,0-7.2-1.63-9.79-4.88v4.38h-9.26v-45.82h9.26v16.3C392.63,192.54,395.92,191.12,399.96,191.12z M389.95,208.32
				c0,2.7,0.75,4.91,2.26,6.61c1.5,1.71,3.32,2.56,5.47,2.56c2.14,0,4.01-0.85,5.62-2.56c1.6-1.71,2.41-3.9,2.41-6.59
				c0-2.67-0.78-4.92-2.34-6.73c-1.57-1.8-3.44-2.71-5.62-2.71c-2.18,0-4.03,0.9-5.53,2.69
				C390.7,203.37,389.95,205.62,389.95,208.32z"/>
		</g>
	</g>
	<g>
		<g>
			
				<linearGradient id="SVGID_00000053525495404133606730000014833090627078758845_" gradientUnits="userSpaceOnUse" x1="282.3065" y1="143.6223" x2="213.7896" y2="55.8221">
				<stop  offset="0" style="stop-color:#F15A29"/>
				<stop  offset="1" style="stop-color:#FF9900"/>
			</linearGradient>
			<path style="fill:url(#SVGID_00000053525495404133606730000014833090627078758845_);" d="M228.75,45.98L200.3,62.24
				c-0.17,0.1-0.27,0.27-0.27,0.46v23.84c0,0.41,0.44,0.67,0.79,0.47l7.64-4.26c0.17-0.09,0.27-0.27,0.27-0.47V67.75
				c0-0.19,0.1-0.37,0.27-0.46l19.71-11.26c0.17-0.09,0.37-0.09,0.54,0l19.45,11.39c0.16,0.1,0.26,0.27,0.26,0.46v50.31
				c0,0.19-0.1,0.37-0.27,0.46l-16.33,9.43c-0.36,0.21-0.36,0.72,0,0.93l7.63,4.41c0.17,0.1,0.37,0.1,0.53,0l16.93-9.74
				c0.17-0.1,0.27-0.27,0.27-0.46V62.88c0-0.19-0.1-0.37-0.27-0.46l-28.18-16.44C229.12,45.89,228.92,45.89,228.75,45.98z"/>
		</g>
		
			<linearGradient id="SVGID_00000142141469926808253350000018150168384599456419_" gradientUnits="userSpaceOnUse" x1="271.1773" y1="152.3374" x2="202.6679" y2="64.5468">
			<stop  offset="0" style="stop-color:#F15A29"/>
			<stop  offset="1" style="stop-color:#FF9900"/>
		</linearGradient>
		<path style="fill:url(#SVGID_00000142141469926808253350000018150168384599456419_);" d="M260.36,92.57v8.81
			c0,0.19,0.1,0.37,0.27,0.46l12.58,7.27c0.17,0.1,0.27,0.27,0.27,0.46v22.66c0,0.19-0.1,0.37-0.27,0.46l-19.62,11.33
			c-0.17,0.1-0.37,0.1-0.53,0l-43.93-25.37c-0.17-0.1-0.27-0.27-0.27-0.46V99.55c0-0.41-0.44-0.67-0.79-0.47l-7.63,4.25
			c-0.17,0.09-0.27,0.27-0.27,0.47v19.41c0,0.19,0.1,0.37,0.27,0.46l52.63,30.39c0.17,0.1,0.37,0.1,0.53,0l28.32-16.35
			c0.17-0.1,0.27-0.27,0.27-0.46v-32.7c0-0.19-0.1-0.37-0.27-0.46l-20.75-11.98C260.8,91.9,260.36,92.16,260.36,92.57z"/>
		
			<linearGradient id="SVGID_00000041266506410270239660000001793967454598129026_" gradientUnits="userSpaceOnUse" x1="253.8116" y1="165.6644" x2="185.4161" y2="78.0198">
			<stop  offset="0" style="stop-color:#F15A29"/>
			<stop  offset="1" style="stop-color:#FF9900"/>
		</linearGradient>
		<path style="fill:url(#SVGID_00000041266506410270239660000001793967454598129026_);" d="M204.24,144.02l-19.62-11.33
			c-0.17-0.1-0.27-0.27-0.27-0.46v-22.65c0-0.19,0.1-0.37,0.27-0.47l29.31-16.38l14.78-8.47c0.17-0.09,0.37-0.09,0.53,0l16.36,9.51
			c0.36,0.21,0.8-0.05,0.8-0.46v-8.86c0-0.19-0.1-0.37-0.27-0.46l-16.87-9.78c-0.16-0.1-0.37-0.1-0.53,0l-52.83,29.87
			c-0.17,0.09-0.27,0.27-0.27,0.47v32.69c0,0.19,0.1,0.37,0.27,0.46l28.32,16.35c0.17,0.1,0.37,0.1,0.53,0l20.62-11.91
			c0.36-0.21,0.36-0.72,0-0.93l-7.63-4.4c-0.17-0.1-0.37-0.1-0.53,0l-12.46,7.2C204.61,144.11,204.41,144.11,204.24,144.02z"/>
		
			<linearGradient id="SVGID_00000057107676139657788010000018160503087093535371_" gradientUnits="userSpaceOnUse" x1="260.6465" y1="160.6096" x2="192.0665" y2="72.7287">
			<stop  offset="0" style="stop-color:#F15A29"/>
			<stop  offset="1" style="stop-color:#FF9900"/>
		</linearGradient>
		<polygon style="fill:url(#SVGID_00000057107676139657788010000018160503087093535371_);" points="228.34,105.82 214.23,98.39 
			214.23,114.53 228.34,121.95 		"/>
	</g>
</g>
</svg>
